<svg version="1.1" id="Layer_1" xmlns="http://www.w3.org/2000/svg" xmlns:xlink="http://www.w3.org/1999/xlink" x="0px" y="0px"
	 width="100%" viewBox="0 0 512 448" enable-background="new 0 0 512 448" xml:space="preserve">
<path fill="#000000" opacity="1.000000" stroke="none" 
	d="
M135.011917,31.461884 
	C145.649216,29.320251 151.850693,34.395470 152.150436,45.437454 
	C152.399017,54.595325 152.401321,63.769840 152.148727,72.926941 
	C152.031952,77.160339 153.161514,78.756332 157.706497,78.740746 
	C201.694992,78.589844 245.684357,78.609657 289.673096,78.724594 
	C293.598206,78.734848 294.936646,77.523735 294.850952,73.587143 
	C294.644257,64.094383 294.633057,54.589134 294.870026,45.097084 
	C295.149078,33.917355 303.381836,27.853134 312.663239,31.854994 
	C318.807678,34.504307 319.952087,40.144684 320.149719,45.956440 
	C320.381744,52.780270 320.206909,59.617867 320.212341,66.449493 
	C320.222076,78.650711 320.223602,78.704460 332.223328,78.636711 
	C341.389130,78.584961 350.442780,78.748047 359.366058,81.574013 
	C375.411285,86.655464 389.756531,104.270020 391.360870,120.984154 
	C392.989166,137.948090 391.754822,154.932953 392.244751,171.899200 
	C392.350708,175.569504 390.598969,176.320953 387.338135,176.258362 
	C286.933411,174.331421 186.517624,175.879929 86.108650,175.265350 
	C81.540802,175.237381 80.110214,176.520050 80.120514,181.155380 
	C80.256332,242.306473 80.408501,303.459015 80.080406,364.608643 
	C79.996567,380.235046 89.485283,390.758331 106.554184,390.710052 
	C161.706650,390.554138 216.859985,390.705139 272.012573,390.569916 
	C276.246033,390.559540 279.234131,391.700409 281.895935,394.963867 
	C287.184296,401.447632 293.456787,406.922180 300.336639,411.697693 
	C301.379425,412.421509 302.642090,413.049927 302.829742,414.606415 
	C301.576508,415.882843 299.998108,415.339417 298.594940,415.339905 
	C234.111023,415.362854 169.627090,415.388916 105.143234,415.325073 
	C81.018845,415.301178 62.723881,401.241913 56.439846,377.943085 
	C55.144115,373.139038 54.833012,368.107605 54.831760,363.115448 
	C54.812370,285.634766 54.796829,208.154068 54.826565,130.673386 
	C54.836327,105.240608 68.855019,86.281082 91.999992,80.238922 
	C101.494583,77.760284 111.208084,78.644135 120.831970,78.756866 
	C125.312546,78.809357 127.054214,77.664909 126.875084,72.912933 
	C126.536400,63.928120 126.706696,54.920216 126.816696,45.923756 
	C126.891090,39.838905 128.121994,34.248840 135.011917,31.461884 
M361.243988,150.658737 
	C365.726440,151.366272 367.058746,149.325378 366.851532,145.014786 
	C366.531982,138.367386 366.971893,131.682556 366.628143,125.037476 
	C366.169037,116.162376 361.768738,109.635674 353.650085,105.871246 
	C349.198730,103.807243 344.373108,103.370781 339.519165,103.370407 
	C273.900818,103.365417 208.282471,103.367966 142.664124,103.369156 
	C130.506409,103.369377 118.348427,103.424011 106.191055,103.360741 
	C88.810326,103.270302 79.462875,114.090378 80.182892,129.256012 
	C80.403778,133.908722 80.212456,138.580826 80.215935,143.244049 
	C80.221451,150.640396 80.223595,150.652298 87.506378,150.652588 
	C178.439438,150.656372 269.372498,150.656433 361.243988,150.658737 
z"/>
<path fill="#000000" opacity="1.000000" stroke="none" 
	d="
M291.485321,370.459442 
	C277.636780,351.509583 271.077576,330.160431 271.131592,307.516968 
	C271.202881,277.641113 281.469910,251.035645 303.160217,229.783035 
	C325.074341,208.311127 351.985199,197.808243 382.330414,198.940018 
	C430.794891,200.747574 471.019775,229.740189 483.528839,278.447083 
	C495.202667,323.901764 482.182709,362.644257 445.912476,392.665802 
	C430.195343,405.675140 411.352783,412.217682 391.009949,414.432770 
	C363.498810,417.428406 338.559448,410.621094 315.930939,395.031647 
	C306.392212,388.460144 298.480865,380.135773 291.485321,370.459442 
M429.172577,373.674927 
	C430.820953,372.271698 432.486389,370.888000 434.115051,369.462219 
	C455.163330,351.036224 464.687622,327.450256 462.365021,299.991333 
	C458.288849,251.800934 414.301361,216.410095 364.559784,225.138092 
	C320.236725,232.915314 289.485840,276.525543 297.216339,320.841156 
	C303.692169,357.964203 335.308563,390.045929 379.256714,390.391937 
	C397.149689,390.532837 414.166962,385.629608 429.172577,373.674927 
z"/>
<path fill="#000000" opacity="1.000000" stroke="none" 
	d="
M395.411469,294.640381 
	C402.189117,294.656250 408.517822,294.553833 414.840302,294.708069 
	C422.571320,294.896667 427.772308,299.950348 427.788483,307.022827 
	C427.804718,314.114532 422.593231,319.228394 414.875244,319.306427 
	C402.890503,319.427612 390.902679,319.419525 378.917908,319.296722 
	C372.187500,319.227783 367.808655,315.198975 366.650085,308.491058 
	C365.592804,302.369568 366.060669,296.193420 366.138092,290.049866 
	C366.274292,279.241089 365.348114,268.402374 366.679565,257.627625 
	C367.455078,251.351761 372.035950,247.056992 377.798096,246.712921 
	C384.141083,246.334167 388.703186,249.824799 390.596191,256.245056 
	C391.225067,258.377930 391.317657,260.490814 391.319092,262.651337 
	C391.325256,271.807373 391.359344,280.963562 391.306946,290.119293 
	C391.292053,292.723053 391.571625,294.881317 395.411469,294.640381 
z"/>
</svg>