<svg version="1.1" id="Layer_1" xmlns="http://www.w3.org/2000/svg" xmlns:xlink="http://www.w3.org/1999/xlink" x="0px" y="0px" width="100%" viewBox="0 0 624 480" enable-background="new 0 0 624 480" xml:space="preserve">
	<path fill="currentColor" opacity="1.000000" stroke="none" d="
M271.102478,415.237549 
	C245.260529,410.419159 221.206314,402.018036 198.912964,388.730225 
	C159.757111,365.391693 135.488083,331.560974 129.101837,286.327942 
	C121.806259,234.654175 135.956512,189.810837 175.337906,154.142761 
	C180.367386,149.587494 180.435501,149.645187 184.997147,154.757492 
	C188.372467,158.540283 192.387405,161.483917 196.920654,163.689941 
	C199.100021,164.750473 200.374710,166.215485 200.230026,168.715210 
	C200.220444,168.880707 200.203476,169.061707 200.255920,169.212555 
	C203.165588,177.582413 199.409241,182.866516 193.343506,188.684692 
	C177.564606,203.819626 169.001617,223.051361 165.856155,244.557648 
	C160.534149,280.945465 168.609238,313.448364 195.386917,339.816010 
	C212.499893,356.666901 233.502625,366.935699 256.372833,373.666840 
	C275.821136,379.390869 295.819427,382.379639 315.928497,382.348572 
	C353.656891,382.290344 390.195190,376.178406 423.013855,355.733337 
	C452.750519,337.208282 470.356842,310.929840 473.778290,275.779236 
	C477.292480,239.675827 467.482117,208.258652 440.160919,183.353867 
	C437.441284,180.874786 437.253204,178.614166 437.545807,175.133865 
	C438.138092,168.089188 440.702209,163.201447 447.492523,160.392883 
	C450.662872,159.081604 453.185730,156.278961 455.149536,153.354141 
	C457.322876,150.117264 459.171204,150.498657 461.949249,152.800812 
	C483.794037,170.903595 498.855408,193.511093 505.979736,220.924347 
	C516.833130,262.686401 512.692322,302.823792 490.414398,340.295288 
	C476.662689,363.425690 456.409424,379.766388 433.126801,392.571167 
	C407.844086,406.475861 380.628143,414.028168 352.055664,417.454376 
	C325.062622,420.691193 298.268982,419.859772 271.102478,415.237549 
z" />
	<path fill="currentColor" opacity="1.000000" stroke="none" d="
M210.985504,116.867599 
	C235.181824,105.986504 260.088379,99.173584 286.138153,96.619705 
	C289.443848,96.295624 292.745270,95.834648 296.058899,95.711594 
	C299.360229,95.589012 300.342926,94.301620 298.813263,91.329926 
	C294.468079,82.888268 290.169037,74.435860 283.569183,67.405418 
	C276.544739,59.922729 275.116516,52.820168 278.817230,45.146030 
	C283.470856,35.495869 294.754120,31.809723 304.198090,36.844776 
	C307.799438,38.764820 310.565002,41.616959 313.165771,44.689274 
	C324.618042,58.218029 332.893860,73.522018 338.374359,90.319420 
	C339.657379,94.251694 341.682312,95.473915 345.850281,95.853531 
	C376.427094,98.638489 405.777344,106.142601 433.356903,119.909889 
	C438.525085,122.489777 441.188080,128.368378 439.992950,133.732864 
	C438.729797,139.402756 434.308411,143.148575 428.133179,143.281799 
	C420.179901,143.453354 412.220062,143.323532 403.109711,143.323532 
	C406.524780,148.692978 409.343048,153.117599 412.154785,157.546341 
	C416.413483,164.254242 416.569641,170.645660 412.589050,175.072952 
	C408.337463,179.801651 402.618835,180.492279 395.163147,177.265457 
	C371.170288,166.881317 347.147186,156.566635 323.196472,146.086319 
	C320.494812,144.904144 318.322174,144.940109 315.664459,146.100693 
	C291.402557,156.695343 267.079346,167.149597 242.794449,177.691772 
	C237.756287,179.878845 232.846237,180.556000 228.185135,176.959518 
	C222.906448,172.886475 221.762100,166.372269 225.248810,159.993500 
	C226.682983,157.369766 228.526794,154.972946 230.037506,152.387161 
	C231.531540,149.829895 233.672333,147.591995 234.359314,143.557312 
	C226.800232,143.557312 219.431396,143.427887 212.069717,143.601593 
	C206.932190,143.722809 202.892822,142.017044 200.383087,137.479279 
	C197.948059,133.076614 197.797485,128.513550 200.653946,124.233200 
	C203.051743,120.640160 206.780060,118.690269 210.985504,116.867599 
z" />
</svg>
