<svg version="1.1" id="Layer_1" xmlns="http://www.w3.org/2000/svg" xmlns:xlink="http://www.w3.org/1999/xlink" x="0px" y="0px"
	 width="100%" viewBox="0 0 400 432" enable-background="new 0 0 400 432" xml:space="preserve">
<path fill="#000000" opacity="1.000000" stroke="none" 
	d="
M343.631470,314.397583 
	C361.294128,335.224060 370.145599,359.045624 371.518677,385.894684 
	C371.750580,390.429474 372.187378,394.897430 370.816833,399.188538 
	C367.926270,408.238617 361.146393,412.873108 352.072449,414.235870 
	C347.977966,414.850830 343.777649,414.958649 339.625183,414.960815 
	C248.134003,415.008423 156.642822,415.021912 65.151649,414.991364 
	C58.499138,414.989136 51.786053,414.874603 45.783104,411.317841 
	C37.936081,406.668518 34.731312,399.214203 34.999676,390.665161 
	C35.529846,373.775940 38.260006,357.198212 45.733227,341.814331 
	C64.053589,304.101349 93.643242,280.820709 134.936966,272.704407 
	C136.078125,272.480103 137.246567,272.352081 138.358154,272.027771 
	C142.105515,270.934570 144.400177,271.961212 146.247330,275.726654 
	C153.656662,290.830658 161.401077,305.770355 169.039886,320.761505 
	C169.766190,322.186890 170.091522,323.929626 172.400970,324.950714 
	C176.896942,311.381500 181.355377,297.925537 185.778320,284.576721 
	C183.087051,282.665405 180.682434,283.495697 178.437637,283.342346 
	C171.678131,282.880524 166.856964,278.085999 166.665756,271.479126 
	C166.464554,264.526642 171.057770,258.906219 178.015381,258.797058 
	C194.842102,258.533051 211.678696,258.551727 228.505585,258.818726 
	C235.049210,258.922577 239.859207,264.691040 239.763382,271.174713 
	C239.664597,277.857056 234.966736,282.765778 228.219910,283.318848 
	C226.111145,283.491730 223.885101,282.827026 221.213684,284.496155 
	C225.683578,297.969238 230.196686,311.572571 235.107910,326.375916 
	C237.903809,320.867676 240.141327,316.454102 242.383636,312.042908 
	C248.649399,299.716522 254.982224,287.423431 261.131866,275.039398 
	C262.436371,272.412415 263.965088,271.281219 266.946747,271.768829 
	C297.497681,276.765167 323.388123,290.134766 343.631470,314.397583 
M170.978180,380.428589 
	C157.523849,353.516907 144.069519,326.605194 130.744339,299.951843 
	C129.762390,299.951843 129.416458,299.879608 129.112503,299.962067 
	C91.613106,310.135742 62.565792,345.804138 60.316628,384.248505 
	C60.080112,388.291229 61.214115,389.797546 65.504471,389.779572 
	C100.300751,389.633911 135.097916,389.703064 169.894791,389.670715 
	C171.323288,389.669373 172.912903,390.117096 174.428436,388.586273 
	C174.148651,385.917999 172.397415,383.625610 170.978180,380.428589 
M291.977386,305.537415 
	C287.067017,303.174988 282.123840,300.905884 276.382385,299.803345 
	C261.550476,329.492371 246.805145,359.008118 231.992508,388.658600 
	C233.364410,389.221771 233.810547,389.564819 234.257217,389.565521 
	C270.239777,389.623352 306.222382,389.641418 342.204895,389.711609 
	C345.185608,389.717438 345.708435,388.181671 345.742126,385.599365 
	C345.838776,378.193787 344.499786,370.966278 342.447876,363.976685 
	C334.587402,337.201080 317.530457,318.144684 291.977386,305.537415 
M192.691772,367.895172 
	C196.114487,374.562317 199.537201,381.229462 203.491241,388.931580 
	C207.322876,381.534851 209.974930,375.175659 213.700378,369.524048 
	C218.844666,361.720001 219.064880,354.360413 215.502258,345.764526 
	C211.009659,334.924835 207.776947,323.562958 203.957275,312.298340 
	C202.071396,313.431061 202.079742,315.099762 201.622101,316.435760 
	C198.011093,326.977661 194.944321,337.731689 190.806992,348.058624 
	C188.007309,355.046692 187.945648,361.145813 192.691772,367.895172 
z"/>
<path fill="#000000" opacity="1.000000" stroke="none" 
	d="
M137.218506,56.190712 
	C156.601791,38.446602 179.385529,30.195591 205.029907,30.783545 
	C252.210266,31.865259 289.828308,62.394085 298.178467,109.780243 
	C303.814789,141.765915 295.425110,170.356934 273.311066,194.128113 
	C258.722168,209.810257 240.110977,219.050690 218.789734,222.135269 
	C194.718948,225.617630 172.035034,221.618958 151.282562,208.488800 
	C128.539597,194.099197 114.298462,173.551407 109.230049,147.282791 
	C102.487709,112.338554 111.337685,81.712921 137.218506,56.190712 
M271.447815,105.150154 
	C260.406952,70.985771 226.786301,51.108604 192.136368,56.611481 
	C169.600662,60.190456 152.308502,72.485138 140.780762,92.558357 
	C125.175850,119.731163 131.521927,158.911469 155.020508,179.470444 
	C170.809708,193.284454 188.969208,199.726166 210.059875,197.801147 
	C228.126877,196.152115 243.506378,188.804550 255.594742,175.562149 
	C273.875183,155.536530 278.564789,131.976028 271.447815,105.150154 
z"/>
</svg>